<svg width="67" height="47" viewBox="0 0 67 47" fill="none" xmlns="http://www.w3.org/2000/svg">
<path d="M0 13.3333C2.65217 13.3333 5.1957 14.3869 7.07107 16.2623C8.94643 18.1376 10 20.6812 10 23.3333C10 25.9855 8.94643 28.529 7.07107 30.4044C5.1957 32.2798 2.65217 33.3333 0 33.3333V40C0 41.7681 0.702379 43.4638 1.95262 44.714C3.20286 45.9643 4.89856 46.6667 6.66667 46.6667H60C61.7681 46.6667 63.4638 45.9643 64.714 44.714C65.9643 43.4638 66.6667 41.7681 66.6667 40V33.3333C64.0145 33.3333 61.471 32.2798 59.5956 30.4044C57.7202 28.529 56.6667 25.9855 56.6667 23.3333C56.6667 20.6812 57.7202 18.1376 59.5956 16.2623C61.471 14.3869 64.0145 13.3333 66.6667 13.3333V6.66667C66.6667 4.89856 65.9643 3.20286 64.714 1.95262C63.4638 0.702379 61.7681 0 60 0H6.66667C4.89856 0 3.20286 0.702379 1.95262 1.95262C0.702379 3.20286 0 4.89856 0 6.66667V13.3333Z" fill="#000E38"/>
<path d="M23.3333 23.3333L30 30L43.3333 16.6666" stroke="white" stroke-width="5" stroke-linecap="round" stroke-linejoin="round"/>
</svg>
